<svg version="1.2" xmlns="http://www.w3.org/2000/svg" viewBox="0 0 500 500" width="500" height="500">
	<title>clock</title>
	<style>
		.s0 { fill: #ffffff } 
	</style>
	<path id="Path 0" fill-rule="evenodd" class="s0" d="m247.5 0.1c11 0 24.1 0.4 29 0.9 4.9 0.5 11.9 1.5 15.5 2.1 3.6 0.6 10.3 2 15 3.1 4.7 1 13.2 3.4 19 5.2 5.8 1.8 15.4 5.4 21.5 8 6.1 2.6 15.3 7 20.5 9.8 5.2 2.7 13.3 7.5 18 10.5 4.7 3.1 13 9 18.4 13.2 5.5 4.2 14.7 12.3 20.6 18.1 5.8 5.8 13.8 14.3 17.7 19 3.9 4.7 11 14.3 15.8 21.5 4.8 7.2 12 19.7 16 28 4 8.2 8.7 18.8 10.3 23.5 1.7 4.7 4.2 12.3 5.6 17 1.4 4.7 3.5 12.8 4.5 18 1.1 5.2 2.7 14.8 3.6 21.2 0.9 7.1 1.5 19.4 1.5 30.8 0 11.4-0.6 23.7-1.5 30.7-0.9 6.5-2.5 16.1-3.6 21.3-1.1 5.2-3.4 14.2-5.1 20-1.7 5.8-5.1 15.4-7.5 21.5-2.4 6.1-7.1 16.2-10.4 22.5-3.3 6.3-9.4 16.4-13.4 22.5-4 6.1-10.4 14.8-14.1 19.5-3.7 4.7-12.2 13.8-18.8 20.4-6.7 6.5-17.3 15.8-23.6 20.5-6.3 4.8-15.6 11.2-20.5 14.2-4.9 3.1-12.4 7.3-16.5 9.4-4.1 2.1-11.1 5.3-15.5 7.2-4.4 1.9-11.6 4.8-16 6.4-4.4 1.6-14.1 4.5-21.5 6.4-7.4 1.9-18 4.2-23.5 5.1-5.7 0.9-19.3 1.8-31.5 2.1-13.6 0.4-25.7 0.1-33-0.6-6.3-0.7-16.7-2.3-23-3.6-6.3-1.3-15.3-3.5-20-4.8-4.7-1.3-12.6-3.9-17.5-5.7-4.9-1.8-14.8-6-22-9.4-7.2-3.5-17.3-8.9-22.5-12.1-5.2-3.3-14.9-10-21.5-14.9-6.6-5-17.2-14.3-23.5-20.6-6.4-6.3-14.6-15.3-18.4-20-3.7-4.7-10.2-13.7-14.4-20-4.2-6.3-10.9-17.8-14.8-25.5-3.8-7.7-8.9-19.2-11.2-25.5-2.2-6.3-5-14.6-6.1-18.5-1.1-3.9-2.9-11.3-4-16.5-1.1-5.2-2.7-14.8-3.6-21.3-0.9-7-1.5-19.3-1.5-30.7 0-11.4 0.6-23.7 1.5-30.8 0.9-6.4 2.5-16 3.6-21.2 1.1-5.2 2.9-12.7 4-16.5 1.1-3.8 3.9-12.2 6.2-18.5 2.2-6.3 7.1-17.6 10.8-25 3.7-7.4 10.3-18.9 14.7-25.5 4.4-6.6 11.1-15.8 14.8-20.5 3.8-4.7 12-13.7 18.4-20 6.4-6.3 16.1-14.9 21.6-19.1 5.4-4.2 13.7-10.1 18.4-13.2 4.7-3 13.2-8 19-11 5.8-3.1 14.1-7.1 18.5-9 4.4-1.9 13.6-5.3 20.5-7.6 6.9-2.2 16.8-5 22-6.2 5.2-1.1 14.9-2.9 21.5-3.9 8.4-1.3 18-1.8 32-1.9zm-21.5 52c-5.2 0.6-13.6 1.9-18.5 3-4.9 1-13.9 3.5-20 5.5-6.1 2-16.8 6.4-24 9.9-7.2 3.4-17.7 9.3-23.5 13.2-5.8 3.8-15.2 11-21 16-5.8 4.9-14.5 13.7-19.4 19.4-4.9 5.7-12.1 15.1-15.9 20.9-3.9 5.8-9.8 16.3-13.2 23.5-3.5 7.2-8.1 18.6-10.3 25.5-2.2 6.9-4.7 16.1-5.6 20.5-0.8 4.4-2 11.8-2.7 16.5-0.6 4.7-1.1 15.5-1.1 24 0 8.5 0.5 19.3 1.1 24 0.7 4.7 1.9 12.1 2.7 16.5 0.9 4.4 3.4 13.6 5.6 20.5 2.2 6.9 6.8 18.4 10.3 25.5 3.4 7.1 9.3 17.7 13.2 23.5 3.8 5.8 11 15.2 15.9 20.9 4.9 5.7 13.6 14.5 19.4 19.4 5.8 5 15.2 12.2 21 16 5.8 3.9 16.3 9.8 23.5 13.2 7.2 3.5 18.6 8.1 25.5 10.3 6.9 2.2 16.1 4.7 20.5 5.6 4.4 0.8 11.8 2 16.5 2.7 4.7 0.6 15.5 1.1 24 1.1 8.5 0 19.3-0.5 24-1.1 4.7-0.7 12.1-1.9 16.5-2.7 4.4-0.9 13.6-3.4 20.5-5.6 6.9-2.2 18.4-6.8 25.5-10.3 7.1-3.4 17.7-9.3 23.5-13.2 5.8-3.8 15.2-11 21-16 5.8-4.9 14.5-13.7 19.4-19.4 4.9-5.7 12.1-15.1 15.9-20.9 3.9-5.8 9.8-16.4 13.2-23.5 3.5-7.1 8.1-18.6 10.3-25.5 2.2-6.9 4.7-16.1 5.6-20.5 0.8-4.4 2-11.8 2.7-16.5 0.6-4.7 1.1-15.5 1.1-24 0-8.5-0.5-19.3-1.1-24-0.7-4.7-1.9-12.1-2.7-16.5-0.9-4.4-3.4-13.6-5.6-20.5-2.2-6.9-6.8-18.3-10.3-25.5-3.4-7.2-9.3-17.7-13.2-23.5-3.8-5.8-11-15.2-16-21-4.9-5.8-13.7-14.5-19.4-19.4-5.7-4.9-15.1-12.1-20.9-15.9-5.8-3.9-16.4-9.8-23.5-13.2-7.1-3.5-18.6-8.1-25.5-10.3-6.9-2.2-16.1-4.7-20.5-5.6-4.4-0.8-11.8-2-16.5-2.5-4.7-0.6-12.8-1.2-18-1.4-5.2-0.2-12-0.2-15-0.1-3 0.2-9.8 0.9-15 1.5zm-1 80.9h50v123l38.4 26.7c21.2 14.8 38.7 27.2 38.9 27.8 0.3 0.6-5.8 10-13.5 21-7.6 11-14.3 20.1-14.9 20.2-0.5 0.2-23-15.1-98.9-68.2z"/>
</svg>